<svg xmlns="http://www.w3.org/2000/svg" viewBox="0 0 24 24" fill="#2496ED">
  <path d="M13.983 11.078h2.119a.186.186 0 00.186-.185V9.006a.186.186 0 00-.186-.186h-2.119a.185.185 0 00-.185.185v1.888c0 .102.083.185.185.185m-2.954-5.43h2.118a.186.186 0 00.186-.186V3.574a.186.186 0 00-.186-.185h-2.118a.185.185 0 00-.185.185v1.888c0 .102.082.185.185.185m0 2.716h2.118a.187.187 0 00.186-.186V6.29a.186.186 0 00-.186-.185h-2.118a.185.185 0 00-.185.185v1.887c0 .102.082.185.185.186m-2.93 0h2.12a.186.186 0 00.184-.186V6.29a.185.185 0 00-.185-.185H8.1a.185.185 0 00-.185.185v1.887c0 .102.083.185.185.186m-2.964 0h2.119a.186.186 0 00.185-.186V6.29a.185.185 0 00-.185-.185H5.136a.186.186 0 00-.186.185v1.887c0 .102.084.185.186.186m5.893 2.715h2.118a.186.186 0 00.186-.185V9.006a.186.186 0 00-.186-.186h-2.118a.185.185 0 00-.185.185v1.888c0 .102.082.185.185.185m-2.93 0h2.12a.185.185 0 00.184-.185V9.006a.185.185 0 00-.184-.186h-2.12a.185.185 0 00-.184.185v1.888c0 .102.083.185.185.185m-2.964 0h2.119a.185.185 0 00.185-.185V9.006a.185.185 0 00-.184-.186h-2.12a.186.186 0 00-.186.186v1.887c0 .102.084.185.186.185m-2.92 0h2.12a.185.185 0 00.184-.185V9.006a.185.185 0 00-.184-.186h-2.12a.185.185 0 00-.184.185v1.888c0 .102.082.185.185.185M23.763 9.89c-.065-.051-.672-.51-1.954-.51-.338 0-.676.03-1.01.072-1.19.188-1.903.662-2.204.886l-.057.036-.094.07a4.72 4.72 0 00-.857 1.06c-.19.312-.36.644-.492.995a4.93 4.93 0 00-.304 1.667c0 .902.224 1.733.631 2.353.357.54.816.976 1.374 1.298 1.123.65 2.676.65 3.799 0 .558-.322 1.017-.758 1.374-1.298.407-.62.63-1.45.63-2.353 0-1.245-.42-2.348-1.098-3.02-.082-.082-.187-.166-.316-.265L22.35 9.89a.48.48 0 00-.587.001zm-.952 7.57c-.73.413-2.043.413-2.773 0-.375-.215-.676-.513-.897-.888a2.95 2.95 0 01-.407-1.555c0-.698.167-1.305.495-1.807.141-.215.313-.405.512-.566l.094-.077.036-.027c.214-.136.706-.44 1.525-.578.167-.027.338-.041.512-.041.727 0 1.197.204 1.294.26.065.037.136.075.204.112.177.094.338.195.482.31.518.41.77 1.077.77 1.918a2.95 2.95 0 01-.407 1.555c-.221.375-.522.673-.897.888zM2.04 11.936a.792.792 0 00-.64.313c-.155.188-.234.406-.234.655 0 .495.234.889.704 1.178.16.102.34.188.54.259.16.057.34.12.54.185a4.424 4.424 0 01.672.27c.197.094.367.225.51.39.144.165.216.375.216.63 0 .292-.073.54-.22.744a1.357 1.357 0 01-.576.48 1.993 1.993 0 01-.744.146c-.533 0-.973-.138-1.32-.414-.345-.275-.517-.621-.517-1.037 0-.128.031-.241.094-.34a.482.482 0 01.26-.214c.108-.043.22-.065.334-.065.167 0 .312.048.433.144.121.095.216.232.283.409.037.102.073.188.11.259.036.073.083.138.14.195a.432.432 0 00.27.088c.177 0 .322-.057.433-.172a.608.608 0 00.168-.423.625.625 0 00-.14-.39 1.029 1.029 0 00-.343-.266 4.01 4.01 0 00-.481-.195 6.52 6.52 0 01-.598-.231 2.193 2.193 0 01-.507-.328 1.39 1.39 0 01-.35-.447 1.434 1.434 0 01-.135-.63c0-.447.14-.837.421-1.17.282-.334.652-.572 1.108-.717.304-.094.625-.142.964-.142.559 0 1.027.137 1.405.41.377.274.566.621.566 1.042 0 .167-.042.312-.126.433a.443.443 0 01-.344.213.593.593 0 01-.334-.088 1.026 1.026 0 01-.256-.25 1.51 1.51 0 00-.283-.292.626.626 0 00-.334-.088c-.144 0-.266.048-.365.144a.468.468 0 00-.15.355c0 .094.037.18.11.257.073.078.177.15.313.22.135.069.304.138.507.203.292.094.566.195.822.304.256.11.48.239.673.39a1.62 1.62 0 01.447.576c.11.225.166.483.166.774 0 .485-.155.898-.466 1.241-.31.344-.714.588-1.21.734-.355.102-.728.152-1.12.152-.558 0-1.042-.137-1.453-.41-.41-.274-.616-.653-.616-1.137 0-.12.031-.225.094-.316a.443.443 0 01.261-.188c.094-.036.193-.053.297-.053.126 0 .241.037.346.11.104.073.187.177.25.312.062.135.135.256.219.36.084.105.188.188.312.25.124.062.266.094.427.094.177 0 .322-.057.433-.172a.608.608 0 00.168-.423.625.625 0 00-.14-.39 1.029 1.029 0 00-.343-.266 4.01 4.01 0 00-.481-.195 6.52 6.52 0 01-.598-.231 2.193 2.193 0 01-.507-.328 1.39 1.39 0 01-.35-.447 1.434 1.434 0 01-.135-.63c0-.447.14-.837.421-1.17.282-.334.652-.572 1.108-.717.304-.094.625-.142.964-.142.559 0 1.027.137 1.405.41.377.274.566.621.566 1.042 0 .167-.042.312-.126.433a.443.443 0 01-.344.213.593.593 0 01-.334-.088 1.026 1.026 0 01-.256-.25 1.51 1.51 0 00-.283-.292.626.626 0 00-.334-.088c-.144 0-.266.048-.365.144a.468.468 0 00-.15.355c0 .094.037.18.11.257.073.078.177.15.313.22.135.069.304.138.507.203z"/>
</svg>
