<svg
    width="351"
    height="286"
    viewBox="0 0 92.869 75.671"
    xmlns="http://www.w3.org/2000/svg">
  <g stroke-linejoin="round">
    <g
        stroke-width=".529"
        paint-order="stroke markers fill">
      <g
          transform="translate(-86.783 -65.617)"
          stroke="#ff8ab6">
        <rect
            width="14.287"
            height="5.821"
            x="126.206"
            y="124.883"
            ry=".265"
            fill="#ffacca"
            stroke-width="1.058" />
        <path
            d="M127 125.677v4.233M128.058 125.677v4.233M129.117 125.677v4.233M130.175 125.677v4.233M131.233 125.677v4.233M132.292 125.677v4.233M133.35 125.677v4.233M134.408 125.677v4.233M135.467 125.677v4.233M136.525 125.677v4.233M137.583 125.677v4.233M138.642 125.677v4.233M139.7 125.677v4.233"
            fill="none"
            stroke-linecap="round" />
      </g>
      <g
          transform="translate(-93.662 -72.496)"
          stroke="#f27c9f">
        <rect
            width="14.287"
            height="5.821"
            x="126.206"
            y="124.883"
            ry=".265"
            fill="#eda4b8"
            stroke-width="1.058" />
        <path
            d="M127 125.677v4.233M128.058 125.677v4.233M129.117 125.677v4.233M130.175 125.677v4.233M131.233 125.677v4.233M132.292 125.677v4.233M133.35 125.677v4.233M134.408 125.677v4.233M135.467 125.677v4.233M136.525 125.677v4.233M137.583 125.677v4.233M138.642 125.677v4.233M139.7 125.677v4.233"
            fill="none"
            stroke-linecap="round" />
      </g>
      <g
          transform="translate(-78.317 -72.496)"
          stroke="#ff8ab6">
        <rect
            width="5.821"
            height="5.821"
            x="126.206"
            y="124.883"
            ry=".265"
            fill="#ffacca"
            stroke-width="1.058" />
        <path
            d="M127 125.677v4.233M128.058 125.677v4.233M129.117 125.677v4.233M130.175 125.677v4.233M131.233 125.677v4.233"
            fill="none"
            stroke-linecap="round" />
      </g>
      <g
          transform="translate(-71.437 -65.617)"
          stroke="#8c8c8c">
        <rect
            width="5.821"
            height="5.821"
            x="126.206"
            y="124.883"
            ry=".265"
            fill="#c2c2c2"
            stroke-width="1.058" />
        <path
            d="M127 125.677v4.233M128.058 125.677v4.233M129.117 125.677v4.233M130.175 125.677v4.233M131.233 125.677v4.233"
            fill="none"
            stroke-linecap="round" />
      </g>
      <g
          transform="translate(-64.558 -65.617)"
          stroke="#707070">
        <rect
            width="5.821"
            height="5.821"
            x="126.206"
            y="124.883"
            ry=".265"
            fill="#9f9f9f"
            stroke-width="1.058" />
        <path
            d="M127 125.677v4.233M128.058 125.677v4.233M129.117 125.677v4.233M130.175 125.677v4.233M131.233 125.677v4.233"
            fill="none"
            stroke-linecap="round" />
      </g>
      <g
          transform="translate(-64.558 -72.496)"
          stroke="#8c8c8c">
        <rect
            width="5.821"
            height="5.821"
            x="126.206"
            y="124.883"
            ry=".265"
            fill="#c2c2c2"
            stroke-width="1.058" />
        <path
            d="M127 125.677v4.233M128.058 125.677v4.233M129.117 125.677v4.233M130.175 125.677v4.233M131.233 125.677v4.233"
            fill="none"
            stroke-linecap="round" />
      </g>
      <g
          transform="translate(-71.437 -72.496)"
          stroke="#f27c9f">
        <rect
            width="5.821"
            height="5.821"
            x="126.206"
            y="124.883"
            ry=".265"
            fill="#eda4b8"
            stroke-width="1.058" />
        <path
            d="M127 125.677v4.233M128.058 125.677v4.233M129.117 125.677v4.233M130.175 125.677v4.233M131.233 125.677v4.233"
            fill="none"
            stroke-linecap="round" />
      </g>
      <g
          transform="translate(-100.542 -79.375)"
          stroke="#f27c9f">
        <rect
            width="14.287"
            height="5.821"
            x="126.206"
            y="124.883"
            ry=".265"
            fill="#eda4b8"
            stroke-width="1.058" />
        <path
            d="M127 125.677v4.233M128.058 125.677v4.233M129.117 125.677v4.233M130.175 125.677v4.233M131.233 125.677v4.233M132.292 125.677v4.233M133.35 125.677v4.233M134.408 125.677v4.233M135.467 125.677v4.233M136.525 125.677v4.233M137.583 125.677v4.233M138.642 125.677v4.233M139.7 125.677v4.233"
            fill="none"
            stroke-linecap="round" />
      </g>
      <g
          transform="translate(-78.317 -79.375)"
          stroke="#f27c9f">
        <rect
            width="5.821"
            height="5.821"
            x="126.206"
            y="124.883"
            ry=".265"
            fill="#eda4b8"
            stroke-width="1.058" />
        <path
            d="M127 125.677v4.233M128.058 125.677v4.233M129.117 125.677v4.233M130.175 125.677v4.233M131.233 125.677v4.233"
            fill="none"
            stroke-linecap="round" />
      </g>
      <g
          transform="translate(-71.437 -79.375)"
          stroke="#ff8ab6">
        <rect
            width="5.821"
            height="5.821"
            x="126.206"
            y="124.883"
            ry=".265"
            fill="#ffacca"
            stroke-width="1.058" />
        <path
            d="M127 125.677v4.233M128.058 125.677v4.233M129.117 125.677v4.233M130.175 125.677v4.233M131.233 125.677v4.233"
            fill="none"
            stroke-linecap="round" />
      </g>
      <g
          transform="translate(-64.558 -79.375)"
          stroke="#f27c9f">
        <rect
            width="5.821"
            height="5.821"
            x="126.206"
            y="124.883"
            ry=".265"
            fill="#eda4b8"
            stroke-width="1.058" />
        <path
            d="M127 125.677v4.233M128.058 125.677v4.233M129.117 125.677v4.233M130.175 125.677v4.233M131.233 125.677v4.233"
            fill="none"
            stroke-linecap="round" />
      </g>
      <g
          transform="translate(-85.196 -79.375)"
          stroke="#ff8ab6">
        <rect
            width="5.821"
            height="5.821"
            x="126.206"
            y="124.883"
            ry=".265"
            fill="#ffacca"
            stroke-width="1.058" />
        <path
            d="M127 125.677v4.233M128.058 125.677v4.233M129.117 125.677v4.233M130.175 125.677v4.233M131.233 125.677v4.233"
            fill="none"
            stroke-linecap="round" />
      </g>
      <g
          transform="translate(-71.438 -86.254)"
          stroke="#f27c9f">
        <rect
            width="5.821"
            height="5.821"
            x="126.206"
            y="124.883"
            ry=".265"
            fill="#eda4b8"
            stroke-width="1.058" />
        <path
            d="M127 125.677v4.233M128.058 125.677v4.233M129.117 125.677v4.233M130.175 125.677v4.233M131.233 125.677v4.233"
            fill="none"
            stroke-linecap="round" />
      </g>
      <g
          transform="translate(-64.558 -86.254)"
          stroke="#ff8ab6">
        <rect
            width="5.821"
            height="5.821"
            x="126.206"
            y="124.883"
            ry=".265"
            fill="#ffacca"
            stroke-width="1.058" />
        <path
            d="M127 125.677v4.233M128.058 125.677v4.233M129.117 125.677v4.233M130.175 125.677v4.233M131.233 125.677v4.233"
            fill="none"
            stroke-linecap="round" />
      </g>
      <g
          transform="translate(-78.317 -86.254)"
          stroke="#ff8ab6">
        <rect
            width="5.821"
            height="5.821"
            x="126.206"
            y="124.883"
            ry=".265"
            fill="#ffacca"
            stroke-width="1.058" />
        <path
            d="M127 125.677v4.233M128.058 125.677v4.233M129.117 125.677v4.233M130.175 125.677v4.233M131.233 125.677v4.233"
            fill="none"
            stroke-linecap="round" />
      </g>
      <g
          transform="translate(-78.317 -93.133)"
          stroke="#f27c9f">
        <rect
            width="5.821"
            height="5.821"
            x="126.206"
            y="124.883"
            ry=".265"
            fill="#eda4b8"
            stroke-width="1.058" />
        <path
            d="M127 125.677v4.233M128.058 125.677v4.233M129.117 125.677v4.233M130.175 125.677v4.233M131.233 125.677v4.233"
            fill="none"
            stroke-linecap="round" />
      </g>
      <g
          transform="translate(-71.438 -93.133)"
          stroke="#ff8ab6">
        <rect
            width="5.821"
            height="5.821"
            x="126.206"
            y="124.883"
            ry=".265"
            fill="#ffacca"
            stroke-width="1.058" />
        <path
            d="M127 125.677v4.233M128.058 125.677v4.233M129.117 125.677v4.233M130.175 125.677v4.233M131.233 125.677v4.233"
            fill="none"
            stroke-linecap="round" />
      </g>
      <g
          transform="translate(-64.558 -93.133)"
          stroke="#f27c9f">
        <rect
            width="5.821"
            height="5.821"
            x="126.206"
            y="124.883"
            ry=".265"
            fill="#eda4b8"
            stroke-width="1.058" />
        <path
            d="M127 125.677v4.233M128.058 125.677v4.233M129.117 125.677v4.233M130.175 125.677v4.233M131.233 125.677v4.233"
            fill="none"
            stroke-linecap="round" />
      </g>
      <g
          transform="translate(-71.437 -100.013)"
          stroke="#f27c9f">
        <rect
            width="5.821"
            height="5.821"
            x="126.206"
            y="124.883"
            ry=".265"
            fill="#eda4b8"
            stroke-width="1.058" />
        <path
            d="M127 125.677v4.233M128.058 125.677v4.233M129.117 125.677v4.233M130.175 125.677v4.233M131.233 125.677v4.233"
            fill="none"
            stroke-linecap="round" />
      </g>
      <g
          transform="translate(-64.558 -100.013)"
          stroke="#ff8ab6">
        <rect
            width="5.821"
            height="5.821"
            x="126.206"
            y="124.883"
            ry=".265"
            fill="#ffacca"
            stroke-width="1.058" />
        <path
            d="M127 125.677v4.233M128.058 125.677v4.233M129.117 125.677v4.233M130.175 125.677v4.233M131.233 125.677v4.233"
            fill="none"
            stroke-linecap="round" />
      </g>
      <g
          transform="translate(-78.317 -106.892)"
          stroke="#f27c9f">
        <rect
            width="5.821"
            height="5.821"
            x="126.206"
            y="124.883"
            ry=".265"
            fill="#eda4b8"
            stroke-width="1.058" />
        <path
            d="M127 125.677v4.233M128.058 125.677v4.233M129.117 125.677v4.233M130.175 125.677v4.233M131.233 125.677v4.233"
            fill="none"
            stroke-linecap="round" />
      </g>
      <g
          transform="translate(-71.438 -106.892)"
          stroke="#ff8ab6">
        <rect
            width="5.821"
            height="5.821"
            x="126.206"
            y="124.883"
            ry=".265"
            fill="#ffacca"
            stroke-width="1.058" />
        <path
            d="M127 125.677v4.233M128.058 125.677v4.233M129.117 125.677v4.233M130.175 125.677v4.233M131.233 125.677v4.233"
            fill="none"
            stroke-linecap="round" />
      </g>
      <g
          transform="translate(-64.558 -106.892)"
          stroke="#f27c9f">
        <rect
            width="5.821"
            height="5.821"
            x="126.206"
            y="124.883"
            ry=".265"
            fill="#eda4b8"
            stroke-width="1.058" />
        <path
            d="M127 125.677v4.233M128.058 125.677v4.233M129.117 125.677v4.233M130.175 125.677v4.233M131.233 125.677v4.233"
            fill="none"
            stroke-linecap="round" />
      </g>
      <g
          transform="translate(-71.437 -113.77)"
          stroke="#f27c9f">
        <rect
            width="5.821"
            height="5.821"
            x="126.206"
            y="124.883"
            ry=".265"
            fill="#eda4b8"
            stroke-width="1.058" />
        <path
            d="M127 125.677v4.233M128.058 125.677v4.233M129.117 125.677v4.233M130.175 125.677v4.233M131.233 125.677v4.233"
            fill="none"
            stroke-linecap="round" />
      </g>
      <g
          transform="translate(-64.558 -113.77)"
          stroke="#ff8ab6">
        <rect
            width="5.821"
            height="5.821"
            x="126.206"
            y="124.883"
            ry=".265"
            fill="#ffacca"
            stroke-width="1.058" />
        <path
            d="M127 125.677v4.233M128.058 125.677v4.233M129.117 125.677v4.233M130.175 125.677v4.233M131.233 125.677v4.233"
            fill="none"
            stroke-linecap="round" />
      </g>
      <g
          transform="translate(-85.99 -100.012)"
          stroke="#ff8ab6">
        <rect
            width="12.171"
            height="5.821"
            x="126.206"
            y="124.883"
            ry=".265"
            fill="#ffacca"
            stroke-width="1.058" />
        <path
            d="M127 125.677v4.233M128.058 125.677v4.233M129.117 125.677v4.233M130.175 125.677v4.233M131.233 125.677v4.233M132.292 125.677v4.233M133.35 125.677v4.233M134.408 125.677v4.233M135.467 125.677v4.233M136.525 125.677v4.233M137.583 125.677v4.233"
            fill="none"
            stroke-linecap="round" />
      </g>
      <g
          transform="translate(-88.37 -86.254)"
          stroke="#ff8ab6">
        <rect
            width="5.821"
            height="5.821"
            x="126.206"
            y="124.883"
            ry=".265"
            fill="#ffacca"
            stroke-width="1.058" />
        <path
            d="M127 125.677v4.233M128.058 125.677v4.233M129.117 125.677v4.233M130.175 125.677v4.233M131.233 125.677v4.233"
            fill="none"
            stroke-linecap="round" />
      </g>
      <g
          transform="translate(-107.156 -86.254)"
          stroke="#ff8ab6">
        <rect
            width="14.287"
            height="5.821"
            x="126.206"
            y="124.883"
            ry=".265"
            fill="#ffacca"
            stroke-width="1.058" />
        <path
            d="M127 125.677v4.233M128.058 125.677v4.233M129.117 125.677v4.233M130.175 125.677v4.233M131.233 125.677v4.233M132.292 125.677v4.233M133.35 125.677v4.233M134.408 125.677v4.233M135.467 125.677v4.233M136.525 125.677v4.233M137.583 125.677v4.233M138.642 125.677v4.233M139.7 125.677v4.233"
            fill="none"
            stroke-linecap="round" />
      </g>
      <g
          transform="translate(-93.663 -93.133)"
          stroke="#f27c9f">
        <rect
            width="12.171"
            height="5.821"
            x="126.206"
            y="124.883"
            ry=".265"
            fill="#eda4b8"
            stroke-width="1.058" />
        <path
            d="M127 125.677v4.233M128.058 125.677v4.233M129.117 125.677v4.233M130.175 125.677v4.233M131.233 125.677v4.233M132.292 125.677v4.233M133.35 125.677v4.233M134.408 125.677v4.233M135.467 125.677v4.233M136.525 125.677v4.233M137.583 125.677v4.233"
            fill="none"
            stroke-linecap="round" />
      </g>
      <g
          transform="translate(-109.802 -93.133)"
          stroke="#ff8ab6">
        <rect
            width="14.287"
            height="5.821"
            x="126.206"
            y="124.883"
            ry=".265"
            fill="#ffacca"
            stroke-width="1.058" />
        <path
            d="M127 125.677v4.233M128.058 125.677v4.233M129.117 125.677v4.233M130.175 125.677v4.233M131.233 125.677v4.233M132.292 125.677v4.233M133.35 125.677v4.233M134.408 125.677v4.233M135.467 125.677v4.233M136.525 125.677v4.233M137.583 125.677v4.233M138.642 125.677v4.233M139.7 125.677v4.233"
            fill="none"
            stroke-linecap="round" />
      </g>
      <g
          transform="translate(-102.923 -100.012)"
          stroke="#f27c9f">
        <rect
            width="14.287"
            height="5.821"
            x="126.206"
            y="124.883"
            ry=".265"
            fill="#eda4b8"
            stroke-width="1.058" />
        <path
            d="M127 125.677v4.233M128.058 125.677v4.233M129.117 125.677v4.233M130.175 125.677v4.233M131.233 125.677v4.233M132.292 125.677v4.233M133.35 125.677v4.233M134.408 125.677v4.233M135.467 125.677v4.233M136.525 125.677v4.233M137.583 125.677v4.233M138.642 125.677v4.233M139.7 125.677v4.233"
            fill="none"
            stroke-linecap="round" />
      </g>
      <g
          transform="translate(-111.39 -100.012)"
          stroke="#f27c9f">
        <rect
            width="5.821"
            height="5.821"
            x="126.206"
            y="124.883"
            ry=".265"
            fill="#eda4b8"
            stroke-width="1.058" />
        <path
            d="M127 125.677v4.233M128.058 125.677v4.233M129.117 125.677v4.233M130.175 125.677v4.233M131.233 125.677v4.233"
            fill="none"
            stroke-linecap="round" />
      </g>
      <g
          transform="translate(-107.685 -106.892)"
          stroke="#ff8ab6">
        <rect
            width="5.821"
            height="5.821"
            x="126.206"
            y="124.883"
            ry=".265"
            fill="#ffacca"
            stroke-width="1.058" />
        <path
            d="M127 125.677v4.233M128.058 125.677v4.233M129.117 125.677v4.233M130.175 125.677v4.233M131.233 125.677v4.233"
            fill="none"
            stroke-linecap="round" />
      </g>
      <g
          transform="translate(-100.806 -106.892)"
          stroke="#ff8ab6">
        <rect
            width="5.821"
            height="5.821"
            x="126.206"
            y="124.883"
            ry=".265"
            fill="#ffacca"
            stroke-width="1.058" />
        <path
            d="M127 125.677v4.233M128.058 125.677v4.233M129.117 125.677v4.233M130.175 125.677v4.233M131.233 125.677v4.233"
            fill="none"
            stroke-linecap="round" />
      </g>
      <g
          transform="translate(-91.546 -106.892)"
          stroke="#ff8ab6">
        <rect
            width="5.821"
            height="5.821"
            x="126.206"
            y="124.883"
            ry=".265"
            fill="#ffacca"
            stroke-width="1.058" />
        <path
            d="M127 125.677v4.233M128.058 125.677v4.233M129.117 125.677v4.233M130.175 125.677v4.233M131.233 125.677v4.233"
            fill="none"
            stroke-linecap="round" />
      </g>
      <g
          transform="translate(-100.012 -113.77)"
          stroke="#f27c9f">
        <rect
            width="10.054"
            height="5.821"
            x="126.206"
            y="124.883"
            ry=".265"
            fill="#eda4b8"
            stroke-width="1.058" />
        <path
            d="M127 125.677v4.233M128.058 125.677v4.233M129.117 125.677v4.233M130.175 125.677v4.233M131.233 125.677v4.233M132.292 125.677v4.233M133.35 125.677v4.233M134.408 125.677v4.233M135.467 125.677v4.233"
            fill="none"
            stroke-linecap="round" />
      </g>
      <g
          transform="translate(-55.827 -90.487)"
          stroke="#ff8ab6">
        <rect
            width="5.821"
            height="5.821"
            x="126.206"
            y="124.883"
            ry=".265"
            fill="#ffacca"
            stroke-width="1.058" />
        <path
            d="M127 125.677v4.233M128.058 125.677v4.233M129.117 125.677v4.233M130.175 125.677v4.233M131.233 125.677v4.233"
            fill="none"
            stroke-linecap="round" />
      </g>
      <g
          transform="translate(-55.827 -97.367)"
          stroke="#f27c9f">
        <rect
            width="5.821"
            height="5.821"
            x="126.206"
            y="124.883"
            ry=".265"
            fill="#eda4b8"
            stroke-width="1.058" />
        <path
            d="M127 125.677v4.233M128.058 125.677v4.233M129.117 125.677v4.233M130.175 125.677v4.233M131.233 125.677v4.233"
            fill="none"
            stroke-linecap="round" />
      </g>
      <g
          transform="translate(-55.827 -104.246)"
          stroke="#ff8ab6">
        <rect
            width="5.821"
            height="5.821"
            x="126.206"
            y="124.883"
            ry=".265"
            fill="#ffacca"
            stroke-width="1.058" />
        <path
            d="M127 125.677v4.233M128.058 125.677v4.233M129.117 125.677v4.233M130.175 125.677v4.233M131.233 125.677v4.233"
            fill="none"
            stroke-linecap="round" />
      </g>
      <g
          transform="translate(-64.558 -65.617)"
          stroke="#707070">
        <rect
            width="5.821"
            height="5.821"
            x="126.206"
            y="124.883"
            ry=".265"
            fill="#9f9f9f"
            stroke-width="1.058" />
        <path
            d="M127 125.677v4.233M128.058 125.677v4.233M129.117 125.677v4.233M130.175 125.677v4.233M131.233 125.677v4.233"
            fill="none"
            stroke-linecap="round" />
      </g>
      <g
          transform="translate(-107.685 -65.617)"
          stroke="#8c8c8c">
        <rect
            width="5.821"
            height="5.821"
            x="126.206"
            y="124.883"
            ry=".265"
            fill="#c2c2c2"
            stroke-width="1.058" />
        <path
            d="M127 125.677v4.233M128.058 125.677v4.233M129.117 125.677v4.233M130.175 125.677v4.233M131.233 125.677v4.233"
            fill="none"
            stroke-linecap="round" />
      </g>
      <g
          transform="translate(-98.954 -65.617)"
          stroke="#8c8c8c">
        <rect
            width="5.821"
            height="5.821"
            x="126.206"
            y="124.883"
            ry=".265"
            fill="#c2c2c2"
            stroke-width="1.058" />
        <path
            d="M127 125.677v4.233M128.058 125.677v4.233M129.117 125.677v4.233M130.175 125.677v4.233M131.233 125.677v4.233"
            fill="none"
            stroke-linecap="round" />
      </g>
      <g
          transform="translate(-103.717 -72.496)"
          stroke="#707070">
        <rect
            width="5.821"
            height="5.821"
            x="126.206"
            y="124.883"
            ry=".265"
            fill="#9f9f9f"
            stroke-width="1.058" />
        <path
            d="M127 125.677v4.233M128.058 125.677v4.233M129.117 125.677v4.233M130.175 125.677v4.233M131.233 125.677v4.233"
            fill="none"
            stroke-linecap="round" />
      </g>
    </g>
    <g
        stroke-width=".529"
        stroke-linecap="round"
        paint-order="stroke markers fill">
      <path
          d="M92.604 3.969V.265L88.9 3.969V.265l-3.704 3.704V.265l-3.704 3.704V.265l-3.704 3.704V.265l-3.705 3.704V.265L70.38 3.969M66.675 3.969L70.379.794"
          fill="none"
          stroke="#c2bd00" />
      <path
          d="M71.437 4.233v.794h3.705v-.794M73.29 17.463v-2.646"
          stroke="#000" />
      <path
          d="M73.29 13.23v.528c0 .53.529.265.529.794 0 .265-.265.53-.53.53-.264 0-.529-.265-.529-.53"
          fill="none"
          stroke="#000" />
      <path
          d="M73.29 11.377h-.265l-.265.53.265 1.058h.53l.264-1.059-.265-.529zM73.29 11.377v-6.35"
          stroke="#000" />
      <path
          d="M76.2 20.373l-2.91-2.91M70.38 20.373l2.91-2.91"
          fill="#eda4b8"
          stroke="#000" />
      <path
          d="M92.604 3.969H64.03L71.438.265h21.166"
          fill="none"
          stroke="#fff800" />
      <path
          d="M74.083 3.969V.265l3.704 3.704V.265l3.705 3.704V.265l3.704 3.704V.265L88.9 3.969V.265l3.704 3.704V.265M74.083 3.969L70.732.617M70.38.794v3.175l-2.117-2.117M66.675 2.646v1.323l-.882-.882"
          fill="none"
          stroke="#fff800" />
    </g>
    <g
        stroke="#589f5c"
        stroke-width="2.646"
        stroke-linecap="round">
      <path
          d="M1.058 74.612H91.81"
          fill="#97d091"
          stroke="#97d091"
          stroke-width="2.117"
          paint-order="stroke markers fill" />
      <path
          d="M1.058 74.613c1.323-2.646 9.26-7.938 17.198-7.938h56.356c8.622 0 12.552 4.275 17.198 7.938"
          fill="#97d091"
          stroke-width="2.117" />
      <path
          d="M62.706 66.675l-10.583 5.292H40.746l-10.583-5.292M40.746 71.967l-5.292 2.91M52.123 71.967l5.292 2.91M21.696 66.675l-10.584 5.292H3.704M11.113 71.967l3.968 2.91M88.37 71.967h-6.614l-10.583-5.292M81.756 71.967l-3.969 2.91"
          fill="none"
          stroke-width="1.587" />
    </g>
  </g>
</svg>